{
	"asset":{
		"generator":"Khronos glTF Blender I/O v4.0.44",
		"version":"2.0"
	},
	"scene":0,
	"scenes":[
		{
			"name":"Scene",
			"nodes":[
				0,
				1,
				2
			]
		}
	],
	"nodes":[
		{
			"mesh":0,
			"name":"\u68f1\u89d2\u7403",
			"scale":[
				0.7648687958717346,
				0.7648687958717346,
				0.7648687958717346
			],
			"translation":[
				0.03790844976902008,
				1.6889013051986694,
				0.011846449226140976
			]
		},
		{
			"mesh":1,
			"name":"\u67f1\u4f53",
			"translation":[
				0.019314784556627274,
				0.023029321804642677,
				0.020836958661675453
			]
		},
		{
			"mesh":2,
			"name":"\u7acb\u65b9\u4f53",
			"translation":[
				-3.032160758972168,
				-0.715289831161499,
				-1.7172648906707764
			]
		}
	],
	"materials":[
		{
			"doubleSided":true,
			"name":"\u6750\u8d28",
			"pbrMetallicRoughness":{}
		},
		{
			"doubleSided":true,
			"name":"\u6750\u8d28.001",
			"pbrMetallicRoughness":{}
		}
	],
	"meshes":[
		{
			"name":"\u68f1\u89d2\u7403.001",
			"primitives":[
				{
					"attributes":{
						"POSITION":0,
						"NORMAL":1,
						"TEXCOORD_0":2
					},
					"indices":3,
					"material":0
				}
			]
		},
		{
			"name":"\u67f1\u4f53",
			"primitives":[
				{
					"attributes":{
						"POSITION":4,
						"NORMAL":5,
						"TEXCOORD_0":6
					},
					"indices":7,
					"material":1
				}
			]
		},
		{
			"name":"\u7acb\u65b9\u4f53",
			"primitives":[
				{
					"attributes":{
						"POSITION":8,
						"NORMAL":9,
						"TEXCOORD_0":10
					},
					"indices":11
				}
			]
		}
	],
	"accessors":[
		{
			"bufferView":0,
			"componentType":5126,
			"count":240,
			"max":[
				0.9510578513145447,
				1,
				0.9999999403953552
			],
			"min":[
				-0.9510578513145447,
				-1,
				-0.9999999403953552
			],
			"type":"VEC3"
		},
		{
			"bufferView":1,
			"componentType":5126,
			"count":240,
			"type":"VEC3"
		},
		{
			"bufferView":2,
			"componentType":5126,
			"count":240,
			"type":"VEC2"
		},
		{
			"bufferView":3,
			"componentType":5123,
			"count":240,
			"type":"SCALAR"
		},
		{
			"bufferView":4,
			"componentType":5126,
			"count":924,
			"max":[
				1,
				1,
				1
			],
			"min":[
				-1,
				-1,
				-1
			],
			"type":"VEC3"
		},
		{
			"bufferView":5,
			"componentType":5126,
			"count":924,
			"type":"VEC3"
		},
		{
			"bufferView":6,
			"componentType":5126,
			"count":924,
			"type":"VEC2"
		},
		{
			"bufferView":7,
			"componentType":5123,
			"count":1524,
			"type":"SCALAR"
		},
		{
			"bufferView":8,
			"componentType":5126,
			"count":96,
			"max":[
				1,
				1,
				1
			],
			"min":[
				-1,
				-1,
				-1
			],
			"type":"VEC3"
		},
		{
			"bufferView":9,
			"componentType":5126,
			"count":96,
			"type":"VEC3"
		},
		{
			"bufferView":10,
			"componentType":5126,
			"count":96,
			"type":"VEC2"
		},
		{
			"bufferView":11,
			"componentType":5123,
			"count":132,
			"type":"SCALAR"
		}
	],
	"bufferViews":[
		{
			"buffer":0,
			"byteLength":2880,
			"byteOffset":0,
			"target":34962
		},
		{
			"buffer":0,
			"byteLength":2880,
			"byteOffset":2880,
			"target":34962
		},
		{
			"buffer":0,
			"byteLength":1920,
			"byteOffset":5760,
			"target":34962
		},
		{
			"buffer":0,
			"byteLength":480,
			"byteOffset":7680,
			"target":34963
		},
		{
			"buffer":0,
			"byteLength":11088,
			"byteOffset":8160,
			"target":34962
		},
		{
			"buffer":0,
			"byteLength":11088,
			"byteOffset":19248,
			"target":34962
		},
		{
			"buffer":0,
			"byteLength":7392,
			"byteOffset":30336,
			"target":34962
		},
		{
			"buffer":0,
			"byteLength":3048,
			"byteOffset":37728,
			"target":34963
		},
		{
			"buffer":0,
			"byteLength":1152,
			"byteOffset":40776,
			"target":34962
		},
		{
			"buffer":0,
			"byteLength":1152,
			"byteOffset":41928,
			"target":34962
		},
		{
			"buffer":0,
			"byteLength":768,
			"byteOffset":43080,
			"target":34962
		},
		{
			"buffer":0,
			"byteLength":264,
			"byteOffset":43848,
			"target":34963
		}
	],
	"buffers":[
		{
			"byteLength":44112,
			"uri":"Q1.bin"
		}
	]
}
